<svg xmlns="http://www.w3.org/2000/svg" viewBox="0 0 346.9 125.4"><path fill="#4B5B51" d="M145.8 87.2c-4.4 0-7.9-1.3-10.4-4s-3.7-6.3-3.7-11 1.2-8.3 3.7-11c2.5-2.6 5.9-4 10.2-4 1.6 0 3 .2 4.5.5 1.4.4 2.8.9 4.2 1.6v6.8c-.5-.5-1.1-.9-1.7-1.3-.6-.4-1.2-.7-1.8-.9s-1.2-.4-1.9-.5c-.7-.1-1.4-.2-2.1-.2-1.3 0-2.4.2-3.3.6-.9.4-1.7 1-2.3 1.7-1.3 1.6-2 3.7-2 6.6 0 2.8.7 5 2 6.5s3.1 2.3 5.6 2.3c1.4 0 2.8-.2 4-.7.5-.2 1.1-.5 1.7-.8.6-.4 1.2-.8 1.8-1.3V85c-.7.4-1.3.7-2 1-.7.3-1.3.5-2 .7-.7.2-1.4.3-2.2.4-.6 0-1.4.1-2.3.1zm29.1 0c-2.2 0-4-.4-5.6-1.1-1.6-.7-2.9-1.7-4-2.9-1.2-1.3-2.1-2.9-2.7-4.8s-.9-3.9-.9-6.1c0-2.3.3-4.3.9-6.2.6-1.8 1.5-3.4 2.7-4.7s2.6-2.3 4.2-3c1.6-.7 3.4-1 5.4-1 2.1 0 3.9.4 5.5 1.1 1.6.7 3 1.7 4.1 2.9 1.1 1.3 2 2.8 2.6 4.6.6 1.8.9 3.9.9 6.3 0 2.3-.3 4.3-.9 6.1-.6 1.8-1.5 3.4-2.6 4.7-1.1 1.3-2.5 2.3-4.1 3-1.6.7-3.4 1.1-5.5 1.1zm0-6.1c1.8 0 3.2-.8 4.2-2.3 1-1.6 1.5-3.8 1.5-6.6s-.5-4.9-1.5-6.5c-.5-.8-1.1-1.4-1.9-1.8-.7-.4-1.5-.6-2.4-.6-.9 0-1.8.2-2.4.6-.7.4-1.3 1-1.7 1.7-1 1.6-1.5 3.7-1.5 6.5s.5 5 1.5 6.6c1 1.6 2.4 2.4 4.2 2.4zM196.6 58h6.7l.7 4.4c.7-1.6 1.9-2.9 3.3-3.8.8-.4 1.6-.8 2.5-1 .9-.2 1.8-.3 2.7-.3.5 0 1 0 1.6.1.5.1 1 .1 1.5.3.5.1 1 .3 1.5.5s.9.4 1.3.6v7.1c-.8-.7-1.8-1.3-2.8-1.7-.5-.2-1.1-.3-1.7-.4-.6-.1-1.2-.1-1.9-.1-1.6 0-3 .3-4.1.8-1.2.5-2.1 1.3-2.7 2.4-.2.3-.3.6-.5 1s-.3.8-.4 1.4c-.1.5-.1 1.1-.2 1.7 0 .6-.1 1.5-.1 2.5v13.1h-7.4V58zm31.3 0h6.7l.7 4.4c.7-1.6 1.9-2.9 3.3-3.8.8-.4 1.6-.8 2.5-1 .9-.2 1.8-.3 2.7-.3.5 0 1 0 1.6.1.5.1 1 .1 1.5.3.5.1 1 .3 1.5.5s.9.4 1.3.6v7.1c-.8-.7-1.8-1.3-2.8-1.7-.5-.2-1.1-.3-1.7-.4-.6-.1-1.2-.1-1.9-.1-1.6 0-3 .3-4.1.8-1.2.5-2.1 1.3-2.7 2.4-.2.3-.3.6-.5 1s-.3.8-.4 1.4c-.1.5-.1 1.1-.2 1.7 0 .6-.1 1.5-.1 2.5v13.1h-7.4V58zm40.8 29.2c-2.2 0-4-.4-5.6-1.1-1.6-.7-2.9-1.7-4-2.9-1.2-1.3-2.1-2.9-2.7-4.8s-.9-3.9-.9-6.1c0-2.3.3-4.3.9-6.2.6-1.8 1.5-3.4 2.7-4.7s2.6-2.3 4.2-3c1.6-.7 3.4-1 5.4-1 2.1 0 3.9.4 5.5 1.1 1.6.7 3 1.7 4.1 2.9 1.1 1.3 2 2.8 2.6 4.6.6 1.8.9 3.9.9 6.3 0 2.3-.3 4.3-.9 6.1-.6 1.8-1.5 3.4-2.6 4.7-1.1 1.3-2.5 2.3-4.1 3-1.5.7-3.4 1.1-5.5 1.1zm0-6.1c1.8 0 3.2-.8 4.2-2.3 1-1.6 1.5-3.8 1.5-6.6s-.5-4.9-1.5-6.5c-.5-.8-1.1-1.4-1.9-1.8-.7-.4-1.5-.6-2.4-.6-.9 0-1.8.2-2.4.6-.7.4-1.3 1-1.7 1.7-1 1.6-1.5 3.7-1.5 6.5s.5 5 1.5 6.6c1.1 1.6 2.4 2.4 4.2 2.4zm28.2 6.1c-1.6 0-3-.3-4.2-1-1.3-.6-2.3-1.6-3.3-2.9-1.8-2.6-2.7-6.3-2.7-11.1s.9-8.5 2.7-11c.9-1.2 1.9-2.2 3.2-2.8 1.3-.7 2.7-1 4.4-1 .8 0 1.6.1 2.3.3s1.4.5 2 .9c1.2.8 2.3 2 3.2 3.6V46.9h7.4v39.5h-6.7l-.7-4.2c-.4.8-.8 1.6-1.4 2.2-.5.6-1.1 1.1-1.7 1.5-1.3.8-2.8 1.3-4.5 1.3zm2.3-6.1c1.6 0 2.9-.8 3.8-2.3.9-1.5 1.4-3.7 1.4-6.4 0-2.8-.5-4.9-1.4-6.4-.9-1.6-2.2-2.3-3.8-2.3-1.6 0-2.9.8-3.8 2.3-.9 1.6-1.4 3.7-1.4 6.4 0 2.8.5 4.9 1.4 6.4 1 1.5 2.2 2.3 3.8 2.3zm33.3 6.1c-2.5 0-4.6-.3-6.4-1-1.8-.6-3.3-1.6-4.6-2.9-2.5-2.6-3.8-6.2-3.8-11 0-2.4.3-4.5.9-6.3.6-1.8 1.5-3.4 2.7-4.7 2.4-2.7 5.7-4 9.9-4 2 0 3.8.3 5.5.9 1.7.6 3.1 1.5 4.3 2.8 1.2 1.3 2.1 2.8 2.6 4.6s.8 3.8.8 5.9v3h-19.3c0 2.2.7 3.9 2 5s3.2 1.6 5.8 1.6c1.7 0 3.4-.2 5.1-.7.8-.2 1.6-.5 2.5-.9.9-.4 1.8-.8 2.7-1.4V85c-1.7.7-3.5 1.2-5.3 1.6-.9.2-1.8.3-2.8.4-.7.1-1.7.2-2.6.2zm4.6-18.2c0-2-.5-3.5-1.5-4.5-.5-.5-1-.8-1.8-1.1-.7-.3-1.6-.4-2.5-.4-1.7 0-3.1.5-4.1 1.5-1 1-1.6 2.5-1.8 4.4l11.7.1z" class="st0 st1"/><path fill="#81A790" d="M72.2 50.3h14.6l-7.3-12.6h14.7l-7.4-12.5-7.3-12.6L72.2 0l-7.3 12.6L58 25.2h14.2l-7.3 12.5z"/><path fill="#81A790" d="M43.4 125.4h43.8l-7.3-12.6h14.6l7.3 12.6h14.6l7.3-12.6h-14.6l-7.7-12.6-7.3-12.6h14.6l-7.3 12.6H116l7.3 12.6 7.3 12.6h14.6l-7.3-12.6-7.3-12.6-7.3-12.6L116 75l-7.3-12.6-7.3 12.6-7.3-12.6 7.3-12.6-7.3-12.6-7.3 12.6-7.3 12.6-7.3-12.6m0 .5H57.6l7.3-12.6H50.3L43 50.3l-7.3 12.6-7.3 12.6-7.3 12.6h14.6l7.3 12.6-7.3 12.6-7.3-12.6-7.3-12.6-7.3 12.6-7.3 12.6L0 125.4h29.2l7.3-12.6-7.3 12.6h14.6m6.9-37.7l-7.3-12.6H58l-7.3 12.6zm28.8-25.2" class="st2"/></svg>
